<?xml version="1.0" standalone="no"?>
<!DOCTYPE svg PUBLIC "-//W3C//DTD SVG 20010904//EN"
 "http://www.w3.org/TR/2001/REC-SVG-20010904/DTD/svg10.dtd">
<svg version="1.0" xmlns="http://www.w3.org/2000/svg"
 width="500.000000pt" height="500.000000pt" viewBox="0 0 500.000000 500.000000"
 preserveAspectRatio="xMidYMid meet">

<g transform="translate(0.000000,500.000000) scale(0.100000,-0.100000)"
fill="#000000" stroke="none">
<path d="M754 2810 c-125 -62 -107 -266 26 -295 17 -4 30 -10 30 -15 0 -5 -13
-11 -30 -15 -66 -15 -110 -74 -110 -151 0 -153 185 -221 283 -105 15 18 30 44
33 57 6 24 8 23 35 -24 38 -67 70 -86 144 -87 47 0 67 5 93 23 106 76 89 238
-30 283 -35 14 -35 24 0 38 37 14 56 30 81 71 40 66 17 163 -51 212 -26 18
-46 23 -93 23 -74 0 -113 -25 -145 -91 l-23 -46 -17 39 c-43 93 -135 127 -226
83z m287 -256 c12 -12 34 -28 50 -34 37 -16 37 -24 0 -40 -39 -16 -68 -48 -85
-95 -13 -36 -15 -37 -15 -13 -1 33 -63 106 -97 114 -31 8 -31 20 0 28 34 8 96
81 97 114 0 24 2 23 15 -13 8 -21 24 -49 35 -61z"/>
<path d="M3001 2792 c-19 -9 -48 -34 -65 -55 l-31 -39 -3 -180 c-4 -213 5
-251 69 -298 72 -51 153 -47 218 13 45 41 51 74 51 265 0 164 -2 181 -22 222
-40 78 -141 112 -217 72z m114 -107 c25 -24 25 -27 25 -188 0 -150 -2 -165
-20 -185 -25 -27 -71 -29 -94 -3 -14 16 -16 41 -14 197 l3 178 25 13 c36 18
48 16 75 -12z"/>
<path d="M3730 2799 c-32 -13 -78 -56 -96 -91 -30 -58 -8 -166 42 -209 11 -9
49 -33 87 -53 37 -20 74 -48 83 -61 27 -42 -5 -95 -57 -95 -40 0 -69 32 -69
75 l0 35 -50 0 -50 0 0 -39 c0 -113 104 -200 207 -172 54 15 92 46 114 95 44
96 9 174 -106 237 -114 62 -142 113 -90 164 49 50 105 19 113 -63 l5 -52 48 0
49 0 0 48 c-1 133 -118 225 -230 181z"/>
<path d="M1420 2495 l0 -305 55 0 55 0 2 226 3 226 39 -61 c22 -34 43 -61 47
-61 4 0 24 27 45 60 l39 59 5 -222 5 -222 106 -3 107 -3 6 36 7 36 62 -3 c62
-3 62 -3 65 -35 3 -32 4 -33 54 -33 l51 0 -6 43 c-3 23 -15 94 -27 157 -30
162 -61 339 -67 378 l-5 33 -66 -3 -66 -3 -7 -35 c-3 -19 -11 -66 -18 -105
-13 -72 -21 -120 -40 -215 -6 -30 -19 -98 -28 -150 l-18 -95 -3 303 -2 302
-60 0 -60 0 -36 -55 c-20 -30 -40 -55 -45 -55 -4 0 -24 25 -44 55 l-37 55 -59
0 -59 0 0 -305z m616 -82 l6 -63 -41 0 c-34 0 -41 3 -41 19 0 15 33 222 41
261 2 9 28 -153 35 -217z"/>
<path d="M2198 2570 c-1 -126 -3 -263 -3 -302 l0 -73 53 -3 52 -3 0 135 0 136
90 0 90 0 0 50 0 50 -90 0 -90 0 0 70 0 70 90 0 90 0 0 50 0 50 -140 0 -140 0
-2 -230z"/>
<path d="M2530 2653 c0 -82 -3 -219 -7 -305 l-6 -158 56 0 57 0 0 136 0 137
46 -6 c77 -8 88 -28 92 -157 l4 -110 49 0 49 0 0 112 c0 92 -4 119 -21 154
l-20 43 25 44 c44 74 33 150 -31 208 -47 44 -66 49 -182 49 l-111 0 0 -147z
m229 21 c12 -15 21 -34 21 -44 0 -10 -9 -29 -21 -44 -18 -22 -28 -26 -75 -26
l-54 0 0 70 0 70 54 0 c47 0 57 -4 75 -26z"/>
<path d="M3265 2645 c-13 -284 -1 -366 63 -422 78 -67 206 -43 253 48 17 35
19 60 19 284 l0 245 -45 0 -45 0 0 -220 c0 -265 -7 -290 -85 -290 -50 0 -55
24 -55 277 l0 233 -49 0 -49 0 -7 -155z"/>
<path d="M3990 2495 l0 -305 50 0 50 0 0 135 0 135 65 0 64 0 3 -132 3 -133
53 -3 52 -3 0 305 0 306 -55 0 -55 0 0 -120 0 -120 -65 0 -65 0 0 120 0 120
-50 0 -50 0 0 -305z"/>
</g>
</svg>
